<svg width="1600" height="900" viewBox="0 0 1600 900" xmlns="http://www.w3.org/2000/svg">
  <defs>
    <linearGradient id="heroGradient" x1="0%" y1="0%" x2="100%" y2="100%">
      <stop offset="0%" stop-color="#1a2138"/>
      <stop offset="100%" stop-color="#2b3656"/>
    </linearGradient>
    <linearGradient id="heroAccent" x1="0%" y1="0%" x2="0%" y2="100%">
      <stop offset="0%" stop-color="#18a0fb" stop-opacity="0.35"/>
      <stop offset="100%" stop-color="#18a0fb" stop-opacity="0"/>
    </linearGradient>
    <radialGradient id="heroGlow" cx="50%" cy="40%" r="50%">
      <stop offset="0%" stop-color="#ffffff" stop-opacity="0.35"/>
      <stop offset="100%" stop-color="#ffffff" stop-opacity="0"/>
    </radialGradient>
  </defs>
  <rect width="1600" height="900" fill="url(#heroGradient)"/>
  <circle cx="420" cy="180" r="140" fill="#18a0fb" opacity="0.25"/>
  <circle cx="1280" cy="120" r="110" fill="#18a0fb" opacity="0.2"/>
  <circle cx="980" cy="580" r="240" fill="url(#heroGlow)"/>
  <path d="M280 620C420 480 520 460 660 520C780 570 880 560 1000 480C1200 350 1300 340 1500 380V900H280Z" fill="url(#heroAccent)"/>
  <rect x="460" y="220" width="320" height="220" rx="24" fill="#202a44" opacity="0.8"/>
  <rect x="500" y="260" width="240" height="20" rx="10" fill="#354264"/>
  <rect x="500" y="300" width="200" height="16" rx="8" fill="#354264"/>
  <rect x="500" y="340" width="160" height="16" rx="8" fill="#354264"/>
  <rect x="820" y="360" width="420" height="260" rx="32" fill="#1f2a45" opacity="0.9"/>
  <rect x="860" y="410" width="140" height="12" rx="6" fill="#2c3b60"/>
  <rect x="860" y="450" width="220" height="12" rx="6" fill="#2c3b60"/>
  <rect x="860" y="490" width="180" height="12" rx="6" fill="#2c3b60"/>
  <rect x="1100" y="430" width="100" height="120" rx="18" fill="#18a0fb" opacity="0.35"/>
  <circle cx="1200" cy="520" r="70" fill="#18a0fb" opacity="0.2"/>
</svg>
