<svg width="24" height="24" viewBox="0 0 24 24" fill="none" xmlns="http://www.w3.org/2000/svg">
    <circle cx="12" cy="12" r="12" fill="#1B2337"/>
    <path d="M12 6.5C9.92893 6.5 8.25 8.17893 8.25 10.25C8.25 12.9875 11.5245 17.0059 11.6691 17.1791C11.855 17.4043 12.145 17.4043 12.3309 17.1791C12.4755 17.0059 15.75 12.9875 15.75 10.25C15.75 8.17893 14.0711 6.5 12 6.5ZM12 11.5C11.1716 11.5 10.5 10.8284 10.5 10C10.5 9.17157 11.1716 8.5 12 8.5C12.8284 8.5 13.5 9.17157 13.5 10C13.5 10.8284 12.8284 11.5 12 11.5Z" fill="#18A0FB"/>
</svg>
