<svg width="24" height="24" viewBox="0 0 24 24" fill="none" xmlns="http://www.w3.org/2000/svg">
    <rect width="24" height="24" rx="12" fill="white" fill-opacity="0.12"/>
    <path d="M9.167 9.5H10.833V17H9.167V9.5ZM10 7C9.39175 7 8.888 7.50375 8.888 8.112C8.888 8.72025 9.39175 9.224 10 9.224C10.6082 9.224 11.112 8.72025 11.112 8.112C11.112 7.50375 10.6082 7 10 7ZM12.5 9.5H14.0943V10.3208H14.1185C14.3383 9.90375 14.855 9.4645 15.6573 9.4645C17.3187 9.4645 17.5 10.5565 17.5 12.0065V17H15.833V12.5468C15.833 11.6273 15.8128 10.4485 14.6255 10.4485C13.417 10.4485 13.2297 11.4473 13.2297 12.4803V17H11.5627V9.5H12.5Z" fill="white"/>
</svg>
