<svg width="24" height="24" viewBox="0 0 24 24" fill="none" xmlns="http://www.w3.org/2000/svg">
    <circle cx="12" cy="12" r="12" fill="#1B2337"/>
    <path d="M15.2734 13.8266C14.5666 13.8266 13.8797 13.714 13.2335 13.5023C13.0128 13.4306 12.7683 13.4979 12.6081 13.6622L11.7699 14.5113C10.2316 13.7304 9.21876 12.7176 8.43789 11.1882L9.27511 10.3279C9.43532 10.1677 9.50262 9.92329 9.43097 9.70261C9.21925 9.05642 9.10664 8.36953 9.10664 7.66271C9.10664 7.36382 8.86113 7.11829 8.56225 7.11829H6.92698C6.6281 7.11829 6.3826 7.36382 6.3826 7.66271C6.3826 12.1524 9.84935 15.6192 14.339 15.6192C14.6379 15.6192 14.8834 15.3736 14.8834 15.0748V13.4395C14.8834 13.1406 14.6379 12.8951 14.339 12.8951C14.2751 12.8951 14.2094 12.9003 14.143 12.9096L15.2734 13.8266Z" fill="#18A0FB"/>
</svg>
